  0
SECTION
  2
HEADER
  9
$ACADVER
  1
AC1018
  9
$ACADMAINTVER
 70
    76
  9
$DWGCODEPAGE
  3
ANSI_1252
  9
$INSBASE
 10
0.0
 20
0.0
 30
0.0
  9
$EXTMIN
 10
0.95
 20
0.95
 30
0.0
  9
$EXTMAX
 10
33.05
 20
21.05
 30
0.0
  9
$LIMMIN
 10
0.0
 20
0.0
  9
$LIMMAX
 10
34.0
 20
22.0
  9
$ORTHOMODE
 70
     1
  9
$REGENMODE
 70
     1
  9
$FILLMODE
 70
     1
  9
$QTEXTMODE
 70
     0
  9
$MIRRTEXT
 70
     0
  9
$LTSCALE
 40
1.0
  9
$ATTMODE
 70
     1
  9
$TEXTSIZE
 40
0.2
  9
$TRACEWID
 40
0.05
  9
$TEXTSTYLE
  7
STANDARD
  9
$CLAYER
  8
0
  9
$CELTYPE
  6
ByLayer
  9
$CECOLOR
 62
   256
  9
$CELTSCALE
 40
1.0
  9
$DISPSILH
 70
     0
  9
$DIMSCALE
 40
1.0
  9
$DIMASZ
 40
0.18
  9
$DIMEXO
 40
0.0625
  9
$DIMDLI
 40
0.38
  9
$DIMRND
 40
0.0
  9
$DIMDLE
 40
0.0
  9
$DIMEXE
 40
0.18
  9
$DIMTP
 40
0.0
  9
$DIMTM
 40
0.0
  9
$DIMTXT
 40
0.18
  9
$DIMCEN
 40
0.09
  9
$DIMTSZ
 40
0.0
  9
$DIMTOL
 70
     0
  9
$DIMLIM
 70
     0
  9
$DIMTIH
 70
     1
  9
$DIMTOH
 70
     1
  9
$DIMSE1
 70
     0
  9
$DIMSE2
 70
     0
  9
$DIMTAD
 70
     0
  9
$DIMZIN
 70
     0
  9
$DIMBLK
  1

  9
$DIMASO
 70
     1
  9
$DIMSHO
 70
     1
  9
$DIMPOST
  1

  9
$DIMAPOST
  1

  9
$DIMALT
 70
     0
  9
$DIMALTD
 70
     2
  9
$DIMALTF
 40
25.4
  9
$DIMLFAC
 40
1.0
  9
$DIMTOFL
 70
     0
  9
$DIMTVP
 40
0.0
  9
$DIMTIX
 70
     0
  9
$DIMSOXD
 70
     0
  9
$DIMSAH
 70
     0
  9
$DIMBLK1
  1

  9
$DIMBLK2
  1

  9
$DIMSTYLE
  2
STANDARD
  9
$DIMCLRD
 70
     0
  9
$DIMCLRE
 70
     0
  9
$DIMCLRT
 70
     0
  9
$DIMTFAC
 40
1.0
  9
$DIMGAP
 40
0.09
  9
$DIMJUST
 70
     0
  9
$DIMSD1
 70
     0
  9
$DIMSD2
 70
     0
  9
$DIMTOLJ
 70
     1
  9
$DIMTZIN
 70
     0
  9
$DIMALTZ
 70
     0
  9
$DIMALTTZ
 70
     0
  9
$DIMUPT
 70
     0
  9
$DIMDEC
 70
     4
  9
$DIMTDEC
 70
     4
  9
$DIMALTU
 70
     2
  9
$DIMALTTD
 70
     2
  9
$DIMTXSTY
  7
STANDARD
  9
$DIMAUNIT
 70
     0
  9
$DIMADEC
 70
     0
  9
$DIMALTRND
 40
0.0
  9
$DIMAZIN
 70
     0
  9
$DIMDSEP
 70
    46
  9
$DIMATFIT
 70
     3
  9
$DIMFRAC
 70
     0
  9
$DIMLDRBLK
  1

  9
$DIMLUNIT
 70
     2
  9
$DIMLWD
 70
    -2
  9
$DIMLWE
 70
    -2
  9
$DIMTMOVE
 70
     0
  9
$LUNITS
 70
     2
  9
$LUPREC
 70
     4
  9
$SKETCHINC
 40
0.1
  9
$FILLETRAD
 40
0.0
  9
$AUNITS
 70
     0
  9
$AUPREC
 70
     0
  9
$MENU
  1
.
  9
$ELEVATION
 40
0.0
  9
$PELEVATION
 40
0.0
  9
$THICKNESS
 40
0.0
  9
$LIMCHECK
 70
     0
  9
$CHAMFERA
 40
0.0
  9
$CHAMFERB
 40
0.0
  9
$CHAMFERC
 40
0.0
  9
$CHAMFERD
 40
0.0
  9
$SKPOLY
 70
     0
  9
$TDCREATE
 40
2453634.424365197
  9
$TDUCREATE
 40
2453634.757698530
  9
$TDUPDATE
 40
2454130.911673356
  9
$TDUUPDATE
 40
2454131.245006690
  9
$TDINDWG
 40
0.0695102662
  9
$TDUSRTIMER
 40
0.0694883912
  9
$USRTIMER
 70
     1
  9
$ANGBASE
 50
0.0
  9
$ANGDIR
 70
     0
  9
$PDMODE
 70
     0
  9
$PDSIZE
 40
0.0
  9
$PLINEWID
 40
0.0
  9
$SPLFRAME
 70
     0
  9
$SPLINETYPE
 70
     6
  9
$SPLINESEGS
 70
     8
  9
$HANDSEED
  5
430
  9
$SURFTAB1
 70
     6
  9
$SURFTAB2
 70
     6
  9
$SURFTYPE
 70
     6
  9
$SURFU
 70
     6
  9
$SURFV
 70
     6
  9
$UCSBASE
  2

  9
$UCSNAME
  2

  9
$UCSORG
 10
0.0
 20
0.0
 30
0.0
  9
$UCSXDIR
 10
1.0
 20
0.0
 30
0.0
  9
$UCSYDIR
 10
0.0
 20
1.0
 30
0.0
  9
$UCSORTHOREF
  2

  9
$UCSORTHOVIEW
 70
     0
  9
$UCSORGTOP
 10
0.0
 20
0.0
 30
0.0
  9
$UCSORGBOTTOM
 10
0.0
 20
0.0
 30
0.0
  9
$UCSORGLEFT
 10
0.0
 20
0.0
 30
0.0
  9
$UCSORGRIGHT
 10
0.0
 20
0.0
 30
0.0
  9
$UCSORGFRONT
 10
0.0
 20
0.0
 30
0.0
  9
$UCSORGBACK
 10
0.0
 20
0.0
 30
0.0
  9
$PUCSBASE
  2

  9
$PUCSNAME
  2

  9
$PUCSORG
 10
0.0
 20
0.0
 30
0.0
  9
$PUCSXDIR
 10
1.0
 20
0.0
 30
0.0
  9
$PUCSYDIR
 10
0.0
 20
1.0
 30
0.0
  9
$PUCSORTHOREF
  2

  9
$PUCSORTHOVIEW
 70
     0
  9
$PUCSORGTOP
 10
0.0
 20
0.0
 30
0.0
  9
$PUCSORGBOTTOM
 10
0.0
 20
0.0
 30
0.0
  9
$PUCSORGLEFT
 10
0.0
 20
0.0
 30
0.0
  9
$PUCSORGRIGHT
 10
0.0
 20
0.0
 30
0.0
  9
$PUCSORGFRONT
 10
0.0
 20
0.0
 30
0.0
  9
$PUCSORGBACK
 10
0.0
 20
0.0
 30
0.0
  9
$USERI1
 70
     0
  9
$USERI2
 70
     0
  9
$USERI3
 70
     0
  9
$USERI4
 70
     0
  9
$USERI5
 70
     0
  9
$USERR1
 40
0.0
  9
$USERR2
 40
0.0
  9
$USERR3
 40
0.0
  9
$USERR4
 40
0.0
  9
$USERR5
 40
0.0
  9
$WORLDVIEW
 70
     1
  9
$SHADEDGE
 70
     3
  9
$SHADEDIF
 70
    70
  9
$TILEMODE
 70
     1
  9
$MAXACTVP
 70
    64
  9
$PINSBASE
 10
0.0
 20
0.0
 30
0.0
  9
$PLIMCHECK
 70
     0
  9
$PEXTMIN
 10
1.049999952316283
 20
0.7999999523162842
 30
0.0
  9
$PEXTMAX
 10
9.449999570846555
 20
7.199999570846554
 30
0.0
  9
$PLIMMIN
 10
-0.2500002402958907
 20
-0.2499999962453767
  9
$PLIMMAX
 10
10.74999951940821
 20
8.249999763458731
  9
$UNITMODE
 70
     0
  9
$VISRETAIN
 70
     1
  9
$PLINEGEN
 70
     0
  9
$PSLTSCALE
 70
     1
  9
$TREEDEPTH
 70
  3020
  9
$CMLSTYLE
  2
Standard
  9
$CMLJUST
 70
     0
  9
$CMLSCALE
 40
1.0
  9
$PROXYGRAPHICS
 70
     1
  9
$MEASUREMENT
 70
     0
  9
$CELWEIGHT
370
    -1
  9
$ENDCAPS
280
     0
  9
$JOINSTYLE
280
     0
  9
$LWDISPLAY
290
     0
  9
$INSUNITS
 70
     0
  9
$HYPERLINKBASE
  1

  9
$STYLESHEET
  1

  9
$XEDIT
290
     1
  9
$CEPSNTYPE
380
     0
  9
$PSTYLEMODE
290
     1
  9
$FINGERPRINTGUID
  2
{82E13385-971C-4A6F-9A07-C99F5937A24D}
  9
$VERSIONGUID
  2
{5CEA5C3A-E55C-4869-A35B-2DF398B101A0}
  9
$EXTNAMES
290
     1
  9
$PSVPSCALE
 40
0.0
  9
$OLESTARTUP
290
     0
  9
$SORTENTS
280
   127
  9
$INDEXCTL
280
     0
  9
$HIDETEXT
280
     0
  9
$XCLIPFRAME
290
     0
  9
$HALOGAP
280
     0
  9
$OBSCOLOR
 70
   257
  9
$OBSLTYPE
280
     0
  9
$INTERSECTIONDISPLAY
280
     0
  9
$INTERSECTIONCOLOR
 70
   257
  9
$DIMASSOC
280
     1
  9
$PROJECTNAME
  1

  0
ENDSEC
  0
SECTION
  2
CLASSES
  0
CLASS
  1
ACDBDICTIONARYWDFLT
  2
AcDbDictionaryWithDefault
  3
ObjectDBX Classes
 90
        0
 91
        1
280
     0
281
     0
  0
CLASS
  1
TABLESTYLE
  2
AcDbTableStyle
  3
ObjectDBX Classes
 90
     2047
 91
        1
280
     0
281
     0
  0
CLASS
  1
DICTIONARYVAR
  2
AcDbDictionaryVar
  3
ObjectDBX Classes
 90
        0
 91
        3
280
     0
281
     0
  0
CLASS
  1
SORTENTSTABLE
  2
AcDbSortentsTable
  3
ObjectDBX Classes
 90
        0
 91
        1
280
     0
281
     0
  0
ENDSEC
  0
SECTION
  2
TABLES
  0
TABLE
  2
VPORT
  5
3A3
330
0
100
AcDbSymbolTable
 70
     3
  0
VPORT
  5
42F
330
3A3
100
AcDbSymbolTableRecord
100
AcDbViewportTableRecord
  2
*Active
 70
     0
 10
0.0
 20
0.0
 11
1.0
 21
1.0
 12
18.67340957085266
 22
11.54737007757386
 13
0.0
 23
0.0
 14
0.5
 24
0.5
 15
0.5
 25
0.5
 16
0.0
 26
0.0
 36
1.0
 17
0.0
 27
0.0
 37
0.0
 40
28.17693131000192
 41
1.515883100381194
 42
50.0
 43
0.0
 44
0.0
 50
0.0
 51
0.0
 71
     0
 72
  1000
 73
     1
 74
     3
 75
     0
 76
     0
 77
     0
 78
     0
281
     0
 65
     1
110
0.0
120
0.0
130
0.0
111
1.0
121
0.0
131
0.0
112
0.0
122
1.0
132
0.0
 79
     0
146
0.0
  0
ENDTAB
  0
TABLE
  2
LTYPE
  5
3A0
330
0
100
AcDbSymbolTable
 70
     1
  0
LTYPE
  5
3AE
330
3A0
100
AcDbSymbolTableRecord
100
AcDbLinetypeTableRecord
  2
ByBlock
 70
     0
  3

 72
    65
 73
     0
 40
0.0
  0
LTYPE
  5
3AF
330
3A0
100
AcDbSymbolTableRecord
100
AcDbLinetypeTableRecord
  2
ByLayer
 70
     0
  3

 72
    65
 73
     0
 40
0.0
  0
LTYPE
  5
3B0
330
3A0
100
AcDbSymbolTableRecord
100
AcDbLinetypeTableRecord
  2
CONTINUOUS
 70
     0
  3
Solid line
 72
    65
 73
     0
 40
0.0
  0
ENDTAB
  0
TABLE
  2
LAYER
  5
39D
330
0
100
AcDbSymbolTable
 70
    23
  0
LAYER
  5
3AB
330
39D
100
AcDbSymbolTableRecord
100
AcDbLayerTableRecord
  2
0
 70
     0
 62
     7
  6
CONTINUOUS
370
    -3
390
3AA
  0
LAYER
  5
3C2
330
39D
100
AcDbSymbolTableRecord
100
AcDbLayerTableRecord
  2
1_16_BALSA
 70
     0
 62
     1
  6
CONTINUOUS
370
    -3
390
3AA
  0
LAYER
  5
3C3
330
39D
100
AcDbSymbolTableRecord
100
AcDbLayerTableRecord
  2
1_32_BALSA
 70
     0
 62
     2
  6
CONTINUOUS
370
    -3
390
3AA
  0
LAYER
  5
3C4
330
39D
100
AcDbSymbolTableRecord
100
AcDbLayerTableRecord
  2
3_32_BALSA
 70
     0
 62
     3
  6
CONTINUOUS
370
    -3
390
3AA
  0
LAYER
  5
3C5
330
39D
100
AcDbSymbolTableRecord
100
AcDbLayerTableRecord
  2
1_8_BALSA
 70
     0
 62
     4
  6
CONTINUOUS
370
    -3
390
3AA
  0
LAYER
  5
3C6
330
39D
100
AcDbSymbolTableRecord
100
AcDbLayerTableRecord
  2
1_4_BALSA
 70
     0
 62
     5
  6
CONTINUOUS
370
    -3
390
3AA
  0
LAYER
  5
3C7
330
39D
100
AcDbSymbolTableRecord
100
AcDbLayerTableRecord
  2
1_64_BIRCH_PLY
 70
     0
 62
     1
  6
CONTINUOUS
370
    -3
390
3AA
  0
LAYER
  5
3C8
330
39D
100
AcDbSymbolTableRecord
100
AcDbLayerTableRecord
  2
1_32_BIRCH_PLY
 70
     0
 62
     2
  6
CONTINUOUS
370
    -3
390
3AA
  0
LAYER
  5
3C9
330
39D
100
AcDbSymbolTableRecord
100
AcDbLayerTableRecord
  2
1_16_BIRCH_PLY
 70
     0
 62
     3
  6
CONTINUOUS
370
    -3
390
3AA
  0
LAYER
  5
3CA
330
39D
100
AcDbSymbolTableRecord
100
AcDbLayerTableRecord
  2
1_8_BIRCH_PLY
 70
     0
 62
     4
  6
CONTINUOUS
370
    -3
390
3AA
  0
LAYER
  5
3CB
330
39D
100
AcDbSymbolTableRecord
100
AcDbLayerTableRecord
  2
1_4_BIRCH_PLY
 70
     0
 62
     5
  6
CONTINUOUS
370
    -3
390
3AA
  0
LAYER
  5
3CC
330
39D
100
AcDbSymbolTableRecord
100
AcDbLayerTableRecord
  2
2_MM_WHITE
 70
     0
 62
     1
  6
CONTINUOUS
370
    -3
390
3AA
  0
LAYER
  5
3CD
330
39D
100
AcDbSymbolTableRecord
100
AcDbLayerTableRecord
  2
3_MM_WHITE
 70
     0
 62
     2
  6
CONTINUOUS
370
    -3
390
3AA
  0
LAYER
  5
3CE
330
39D
100
AcDbSymbolTableRecord
100
AcDbLayerTableRecord
  2
6_MM_WHITE
 70
     0
 62
     3
  6
CONTINUOUS
370
    -3
390
3AA
  0
LAYER
  5
3CF
330
39D
100
AcDbSymbolTableRecord
100
AcDbLayerTableRecord
  2
3_MM_GRAY
 70
     0
 62
     4
  6
CONTINUOUS
370
    -3
390
3AA
  0
LAYER
  5
3D0
330
39D
100
AcDbSymbolTableRecord
100
AcDbLayerTableRecord
  2
6_MM_GRAY
 70
     0
 62
     5
  6
CONTINUOUS
370
    -3
390
3AA
  0
LAYER
  5
3D1
330
39D
100
AcDbSymbolTableRecord
100
AcDbLayerTableRecord
  2
1_32_BASSWOOD
 70
     0
 62
     1
  6
CONTINUOUS
370
    -3
390
3AA
  0
LAYER
  5
3D2
330
39D
100
AcDbSymbolTableRecord
100
AcDbLayerTableRecord
  2
1_16_BASSWOOD
 70
     0
 62
     2
  6
CONTINUOUS
370
    -3
390
3AA
  0
LAYER
  5
3D3
330
39D
100
AcDbSymbolTableRecord
100
AcDbLayerTableRecord
  2
3_32_BASSWOOD
 70
     0
 62
     3
  6
CONTINUOUS
370
    -3
390
3AA
  0
LAYER
  5
3D4
330
39D
100
AcDbSymbolTableRecord
100
AcDbLayerTableRecord
  2
1_8_BASSWOOD
 70
     0
 62
     4
  6
CONTINUOUS
370
    -3
390
3AA
  0
LAYER
  5
3D5
330
39D
100
AcDbSymbolTableRecord
100
AcDbLayerTableRecord
  2
1_4_BASSWOOD
 70
     0
 62
     5
  6
CONTINUOUS
370
    -3
390
3AA
  0
LAYER
  5
3D6
330
39D
100
AcDbSymbolTableRecord
100
AcDbLayerTableRecord
  2
1_8_LITE_PLY
 70
     0
 62
     1
  6
CONTINUOUS
370
    -3
390
3AA
  0
LAYER
  5
3D7
330
39D
100
AcDbSymbolTableRecord
100
AcDbLayerTableRecord
  2
1_4_LITE_PLY
 70
     0
 62
     2
  6
CONTINUOUS
370
    -3
390
3AA
  0
ENDTAB
  0
TABLE
  2
STYLE
  5
39E
330
0
100
AcDbSymbolTable
 70
     1
  0
STYLE
  5
3AC
330
39E
100
AcDbSymbolTableRecord
100
AcDbTextStyleTableRecord
  2
STANDARD
 70
     0
 40
0.0
 41
1.0
 50
0.0
 71
     0
 42
0.2
  3
txt
  4

  0
ENDTAB
  0
TABLE
  2
VIEW
  5
3A1
330
0
100
AcDbSymbolTable
 70
     0
  0
ENDTAB
  0
TABLE
  2
UCS
  5
3A2
330
0
100
AcDbSymbolTable
 70
     0
  0
ENDTAB
  0
TABLE
  2
APPID
  5
3A4
330
0
100
AcDbSymbolTable
 70
     4
  0
APPID
  5
3AD
330
3A4
100
AcDbSymbolTableRecord
100
AcDbRegAppTableRecord
  2
ACAD
 70
     0
  0
APPID
  5
3D8
330
3A4
100
AcDbSymbolTableRecord
100
AcDbRegAppTableRecord
  2
ACAECLAYERSTANDARD
 70
     0
  0
APPID
  5
3D9
330
3A4
100
AcDbSymbolTableRecord
100
AcDbRegAppTableRecord
  2
ACAD_EXEMPT_FROM_CAD_STANDARDS
 70
     0
  0
APPID
  5
3DA
330
3A4
100
AcDbSymbolTableRecord
100
AcDbRegAppTableRecord
  2
ACAD_PSEXT
 70
     0
  0
ENDTAB
  0
TABLE
  2
DIMSTYLE
  5
3A5
330
0
100
AcDbSymbolTable
 70
     1
100
AcDbDimStyleTable
 71
     0
  0
DIMSTYLE
105
3DB
330
3A5
100
AcDbSymbolTableRecord
100
AcDbDimStyleTableRecord
  2
STANDARD
 70
     0
279
     2
340
3AC
  0
ENDTAB
  0
TABLE
  2
BLOCK_RECORD
  5
39C
330
0
100
AcDbSymbolTable
 70
    21
  0
BLOCK_RECORD
  5
3BD
102
{ACAD_XDICTIONARY
360
42C
102
}
330
39C
100
AcDbSymbolTableRecord
100
AcDbBlockTableRecord
  2
*Model_Space
340
3C0
  0
BLOCK_RECORD
  5
3B9
330
39C
100
AcDbSymbolTableRecord
100
AcDbBlockTableRecord
  2
*Paper_Space
340
3BC
  0
BLOCK_RECORD
  5
3DD
330
39C
100
AcDbSymbolTableRecord
100
AcDbBlockTableRecord
  2
$MODEL_SPACE
340
0
  0
BLOCK_RECORD
  5
3DF
330
39C
100
AcDbSymbolTableRecord
100
AcDbBlockTableRecord
  2
$PAPER_SPACE
340
0
  0
BLOCK_RECORD
  5
3E1
330
39C
100
AcDbSymbolTableRecord
100
AcDbBlockTableRecord
  2
*U2
340
0
  0
BLOCK_RECORD
  5
3E3
330
39C
100
AcDbSymbolTableRecord
100
AcDbBlockTableRecord
  2
*U3
340
0
102
{BLKREFS
331
BA
102
}
  0
BLOCK_RECORD
  5
3E5
330
39C
100
AcDbSymbolTableRecord
100
AcDbBlockTableRecord
  2
*U4
340
0
102
{BLKREFS
331
BF
102
}
  0
BLOCK_RECORD
  5
3E7
330
39C
100
AcDbSymbolTableRecord
100
AcDbBlockTableRecord
  2
*U5
340
0
102
{BLKREFS
331
C0
102
}
  0
BLOCK_RECORD
  5
3E9
330
39C
100
AcDbSymbolTableRecord
100
AcDbBlockTableRecord
  2
*U6
340
0
102
{BLKREFS
331
C1
102
}
  0
BLOCK_RECORD
  5
3EB
330
39C
100
AcDbSymbolTableRecord
100
AcDbBlockTableRecord
  2
*U7
340
0
102
{BLKREFS
331
C4
102
}
  0
BLOCK_RECORD
  5
3ED
330
39C
100
AcDbSymbolTableRecord
100
AcDbBlockTableRecord
  2
*U8
340
0
102
{BLKREFS
331
11A
102
}
  0
BLOCK_RECORD
  5
3EF
330
39C
100
AcDbSymbolTableRecord
100
AcDbBlockTableRecord
  2
*U9
340
0
  0
BLOCK_RECORD
  5
3F1
330
39C
100
AcDbSymbolTableRecord
100
AcDbBlockTableRecord
  2
*U10
340
0
102
{BLKREFS
331
124
102
}
  0
BLOCK_RECORD
  5
3F3
330
39C
100
AcDbSymbolTableRecord
100
AcDbBlockTableRecord
  2
*U11
340
0
102
{BLKREFS
331
138
102
}
  0
BLOCK_RECORD
  5
3F5
330
39C
100
AcDbSymbolTableRecord
100
AcDbBlockTableRecord
  2
*U12
340
0
102
{BLKREFS
331
139
102
}
  0
BLOCK_RECORD
  5
3F7
330
39C
100
AcDbSymbolTableRecord
100
AcDbBlockTableRecord
  2
*U13
340
0
102
{BLKREFS
331
13C
102
}
  0
BLOCK_RECORD
  5
3F9
330
39C
100
AcDbSymbolTableRecord
100
AcDbBlockTableRecord
  2
*U14
340
0
102
{BLKREFS
331
13F
102
}
  0
BLOCK_RECORD
  5
3FB
330
39C
100
AcDbSymbolTableRecord
100
AcDbBlockTableRecord
  2
*U15
340
0
102
{BLKREFS
331
14F
102
}
  0
BLOCK_RECORD
  5
3FD
330
39C
100
AcDbSymbolTableRecord
100
AcDbBlockTableRecord
  2
*U16
340
0
102
{BLKREFS
331
150
102
}
  0
BLOCK_RECORD
  5
3FF
330
39C
100
AcDbSymbolTableRecord
100
AcDbBlockTableRecord
  2
*U17
340
0
102
{BLKREFS
331
152
102
}
  0
BLOCK_RECORD
  5
401
330
39C
100
AcDbSymbolTableRecord
100
AcDbBlockTableRecord
  2
*U18
340
0
102
{BLKREFS
331
165
102
}
  0
BLOCK_RECORD
  5
403
330
39C
100
AcDbSymbolTableRecord
100
AcDbBlockTableRecord
  2
*U19
340
0
102
{BLKREFS
331
166
102
}
  0
BLOCK_RECORD
  5
405
330
39C
100
AcDbSymbolTableRecord
100
AcDbBlockTableRecord
  2
*U20
340
0
102
{BLKREFS
331
167
102
}
  0
ENDTAB
  0
ENDSEC
  0
SECTION
  2
BLOCKS
  0
BLOCK
  5
3BE
330
3BD
100
AcDbEntity
  8
0
100
AcDbBlockBegin
  2
*Model_Space
 70
     0
 10
0.0
 20
0.0
 30
0.0
  3
*Model_Space
  1

  0
ENDBLK
  5
3BF
330
3BD
100
AcDbEntity
  8
0
100
AcDbBlockEnd
  0
BLOCK
  5
3BA
330
3B9
100
AcDbEntity
 67
     1
  8
0
100
AcDbBlockBegin
  2
*Paper_Space
 70
     0
 10
0.0
 20
0.0
 30
0.0
  3
*Paper_Space
  1

  0
ENDBLK
  5
3BB
330
3B9
100
AcDbEntity
 67
     1
  8
0
100
AcDbBlockEnd
  0
BLOCK
  5
3DE
330
3DD
100
AcDbEntity
  8
0
100
AcDbBlockBegin
  2
$MODEL_SPACE
 70
     0
 10
0.0
 20
0.0
 30
0.0
  3
$MODEL_SPACE
  1

  0
ENDBLK
  5
21
330
3DD
100
AcDbEntity
  8
0
100
AcDbBlockEnd
  0
BLOCK
  5
3E0
330
3DF
100
AcDbEntity
  8
0
100
AcDbBlockBegin
  2
$PAPER_SPACE
 70
     0
 10
0.0
 20
0.0
 30
0.0
  3
$PAPER_SPACE
  1

  0
ENDBLK
  5
5B
330
3DF
100
AcDbEntity
  8
0
100
AcDbBlockEnd
  0
BLOCK
  5
3E2
330
3E1
100
AcDbEntity
  8
0
100
AcDbBlockBegin
  2
*U2
 70
     1
 10
0.0
 20
0.0
 30
0.0
  3
*U2
  1

  0
TEXT
  5
29A
330
3E1
100
AcDbEntity
  8
0
100
AcDbText
 10
16.99173942243116
 20
20.22958411338029
 30
0.0
 40
0.3
  1
This sample file is intended to help you set up a drawing for laser 
100
AcDbText
  0
TEXT
  5
29B
330
3E1
100
AcDbEntity
  8
0
100
AcDbText
 10
16.98226997985225
 20
19.7160851207678
 30
0.0
 40
0.3
  1
cutting.
100
AcDbText
  0
TEXT
  5
29C
330
3E1
100
AcDbEntity
  8
0
100
AcDbText
 10
16.96171927468099
 20
19.20057135313852
 30
0.0
 40
0.3
  1
Note the use of individual layers named for each type of material to 
100
AcDbText
  0
TEXT
  5
29D
330
3E1
100
AcDbEntity
  8
0
100
AcDbText
 10
16.96574882471457
 20
18.68707236052602
 30
0.0
 40
0.3
  1
be cut.  Parts should be drawn with orientation relative to the 
100
AcDbText
  0
TEXT
  5
29E
330
3E1
100
AcDbEntity
  8
0
100
AcDbText
 10
16.9826729348556
 20
18.17155859289673
 30
0.0
 40
0.3
  1
assumed grain direction (horizontal), otherwise the final product 
100
AcDbText
  0
TEXT
  5
29F
330
3E1
100
AcDbEntity
  8
0
100
AcDbText
 10
16.96595030221625
 20
17.65805960028425
 30
0.0
 40
0.3
  1
may have grain running in the wrong direction.
100
AcDbText
  0
TEXT
  5
2A0
330
3E1
100
AcDbEntity
  8
0
100
AcDbText
 10
16.97924781732706
 20
16.64456060767176
 30
0.0
 40
0.3
  1
Gunderson AeroDesign LLC
100
AcDbText
  0
TEXT
  5
2A1
330
3E1
100
AcDbEntity
  8
0
100
AcDbText
 10
16.94640698455339
 20
16.13106161505927
 30
0.0
 40
0.3
  1
1485 Poinsettia Ave, Suite 113
100
AcDbText
  0
TEXT
  5
2A2
330
3E1
100
AcDbEntity
  8
0
100
AcDbText
 10
16.9951645399597
 20
15.61756262244677
 30
0.0
 40
0.3
  1
Vista, CA 92081
100
AcDbText
  0
TEXT
  5
2A3
330
3E1
100
AcDbEntity
  8
0
100
AcDbText
 10
16.96856950973808
 20
15.10204885481749
 30
0.0
 40
0.3
  1
760-734-6659 office
100
AcDbText
  0
TEXT
  5
2A4
330
3E1
100
AcDbEntity
  8
0
100
AcDbText
 10
16.96856950973808
 20
14.58653508718821
 30
0.0
 40
0.3
  1
760-734-6676 fax
100
AcDbText
  0
TEXT
  5
2A5
330
3E1
100
AcDbEntity
  8
0
100
AcDbText
 10
16.98085963734049
 20
14.07303609457572
 30
0.0
 40
0.3
  1
sales@gundersonaerodesign.com
100
AcDbText
  0
ENDBLK
  5
2A7
330
3E1
100
AcDbEntity
  8
0
100
AcDbBlockEnd
  0
BLOCK
  5
3E4
330
3E3
100
AcDbEntity
  8
0
100
AcDbBlockBegin
  2
*U3
 70
     1
 10
0.0
 20
0.0
 30
0.0
  3
*U3
  1

  0
LINE
  5
2A9
330
3E3
100
AcDbEntity
  8
0
100
AcDbLine
 10
22.56388551615486
 20
1.874998209424964
 30
0.0
 11
22.56388551615486
 21
1.190957922773626
 31
0.0
  0
LINE
  5
2AA
330
3E3
100
AcDbEntity
  8
0
100
AcDbLine
 10
23.50357813694078
 20
1.532978066099295
 30
0.0
 11
22.56388551615486
 21
1.190957922773626
 31
0.0
  0
LINE
  5
2AB
330
3E3
100
AcDbEntity
  8
0
100
AcDbLine
 10
23.50357813694078
 20
1.532978066099295
 30
0.0
 11
22.56388551615486
 21
1.874998209424964
 31
0.0
  0
ENDBLK
  5
2AD
330
3E3
100
AcDbEntity
  8
0
100
AcDbBlockEnd
  0
BLOCK
  5
3E6
330
3E5
100
AcDbEntity
  8
0
100
AcDbBlockBegin
  2
*U4
 70
     1
 10
0.0
 20
0.0
 30
0.0
  3
*U4
  1

  0
SOLID
  5
2AF
330
3E5
100
AcDbEntity
  8
0
  6
Continuous
100
AcDbTrace
 10
22.56388551615486
 20
1.874998209424964
 30
0.0
 11
22.56388551615486
 21
1.532978066099295
 31
0.0
 12
23.50357813694078
 22
1.532978066099295
 32
0.0
 13
23.50357813694078
 23
1.532978066099295
 33
0.0
  0
SOLID
  5
2B0
330
3E5
100
AcDbEntity
  8
0
  6
Continuous
100
AcDbTrace
 10
-22.56388551615486
 20
1.532978066099295
 30
0.0
 11
-23.50357813694078
 21
1.532978066099295
 31
0.0
 12
-22.56388551615486
 22
1.190957922773626
 32
0.0
 13
-22.56388551615486
 23
1.190957922773626
 33
0.0
210
0.0
220
0.0
230
-1.0
  0
LINE
  5
2B1
330
3E5
100
AcDbEntity
  8
0
  6
Continuous
100
AcDbLine
 10
22.56388551615486
 20
1.874998209424964
 30
0.0
 11
22.56388551615486
 21
1.532978066099295
 31
0.0
  0
LINE
  5
2B2
330
3E5
100
AcDbEntity
  8
0
  6
Continuous
100
AcDbLine
 10
23.50357813694078
 20
1.532978066099295
 30
0.0
 11
22.56388551615486
 21
1.874998209424964
 31
0.0
  0
LINE
  5
2B3
330
3E5
100
AcDbEntity
  8
0
  6
Continuous
100
AcDbLine
 10
23.50357813694078
 20
1.532978066099295
 30
0.0
 11
22.56388551615486
 21
1.190957922773626
 31
0.0
  0
LINE
  5
2B4
330
3E5
100
AcDbEntity
  8
0
  6
Continuous
100
AcDbLine
 10
22.56388551615486
 20
1.190957922773626
 30
0.0
 11
22.56388551615486
 21
1.532978066099295
 31
0.0
  0
ENDBLK
  5
2B6
330
3E5
100
AcDbEntity
  8
0
100
AcDbBlockEnd
  0
BLOCK
  5
3E8
330
3E7
100
AcDbEntity
  8
0
100
AcDbBlockBegin
  2
*U5
 70
     1
 10
0.0
 20
0.0
 30
0.0
  3
*U5
  1

  0
SOLID
  5
2B8
330
3E7
100
AcDbEntity
  8
0
  6
Continuous
100
AcDbTrace
 10
11.82342427532163
 20
1.874998209424964
 30
0.0
 11
10.88373165453572
 21
1.532978066099295
 31
0.0
 12
11.82342427532163
 22
1.532978066099295
 32
0.0
 13
11.82342427532163
 23
1.532978066099295
 33
0.0
  0
SOLID
  5
2B9
330
3E7
100
AcDbEntity
  8
0
  6
Continuous
100
AcDbTrace
 10
-10.88373165453572
 20
1.532978066099295
 30
0.0
 11
-11.82342427532163
 21
1.532978066099295
 31
0.0
 12
-11.82342427532163
 22
1.190957922773626
 32
0.0
 13
-11.82342427532163
 23
1.190957922773626
 33
0.0
210
0.0
220
0.0
230
-1.0
  0
LINE
  5
2BA
330
3E7
100
AcDbEntity
  8
0
  6
Continuous
100
AcDbLine
 10
11.82342427532163
 20
1.874998209424964
 30
0.0
 11
10.88373165453572
 21
1.532978066099295
 31
0.0
  0
LINE
  5
2BB
330
3E7
100
AcDbEntity
  8
0
  6
Continuous
100
AcDbLine
 10
11.82342427532163
 20
1.532978066099295
 30
0.0
 11
11.82342427532163
 21
1.874998209424964
 31
0.0
  0
LINE
  5
2BC
330
3E7
100
AcDbEntity
  8
0
  6
Continuous
100
AcDbLine
 10
11.82342427532163
 20
1.532978066099295
 30
0.0
 11
11.82342427532163
 21
1.190957922773626
 31
0.0
  0
LINE
  5
2BD
330
3E7
100
AcDbEntity
  8
0
  6
Continuous
100
AcDbLine
 10
11.82342427532163
 20
1.190957922773626
 30
0.0
 11
10.88373165453572
 21
1.532978066099295
 31
0.0
  0
ENDBLK
  5
2BF
330
3E7
100
AcDbEntity
  8
0
100
AcDbBlockEnd
  0
BLOCK
  5
3EA
330
3E9
100
AcDbEntity
  8
0
100
AcDbBlockBegin
  2
*U6
 70
     1
 10
0.0
 20
0.0
 30
0.0
  3
*U6
  1

  0
LINE
  5
2C1
330
3E9
100
AcDbEntity
  8
0
100
AcDbLine
 10
11.82342427532163
 20
1.874998209424964
 30
0.0
 11
11.82342427532163
 21
1.190957922773626
 31
0.0
  0
LINE
  5
2C2
330
3E9
100
AcDbEntity
  8
0
100
AcDbLine
 10
10.88373165453572
 20
1.532978066099295
 30
0.0
 11
11.82342427532163
 21
1.874998209424964
 31
0.0
  0
LINE
  5
2C3
330
3E9
100
AcDbEntity
  8
0
100
AcDbLine
 10
10.88373165453572
 20
1.532978066099295
 30
0.0
 11
11.82342427532163
 21
1.190957922773626
 31
0.0
  0
ENDBLK
  5
2C5
330
3E9
100
AcDbEntity
  8
0
100
AcDbBlockEnd
  0
BLOCK
  5
3EC
330
3EB
100
AcDbEntity
  8
0
100
AcDbBlockBegin
  2
*U7
 70
     1
 10
0.0
 20
0.0
 30
0.0
  3
*U7
  1

  0
TEXT
  5
2CA
330
3EB
100
AcDbEntity
  8
0
100
AcDbText
 10
12.9204652636546
 20
1.680128892104244
 30
0.0
 40
0.5
  1
Assumed Grain Direction
100
AcDbText
  0
ENDBLK
  5
2CC
330
3EB
100
AcDbEntity
  8
0
100
AcDbBlockEnd
  0
BLOCK
  5
3EE
330
3ED
100
AcDbEntity
  8
0
100
AcDbBlockBegin
  2
*U8
 70
     1
 10
0.0
 20
0.0
 30
0.0
  3
*U8
  1

  0
TEXT
  5
314
330
3ED
100
AcDbEntity
  8
0
100
AcDbText
 10
1.955298283210104
 20
19.98635351608415
 30
0.0
 40
0.2
  1
Parts can be laid out on the sheet as you would 
100
AcDbText
  0
TEXT
  5
315
330
3ED
100
AcDbEntity
  8
0
100
AcDbText
 10
4.142336563935423
 20
19.64402085434248
 30
0.0
 40
0.2
  1
like them cut, OR...
100
AcDbText
  0
ENDBLK
  5
317
330
3ED
100
AcDbEntity
  8
0
100
AcDbBlockEnd
  0
BLOCK
  5
3F0
330
3EF
100
AcDbEntity
  8
0
100
AcDbBlockBegin
  2
*U9
 70
     1
 10
0.0
 20
0.0
 30
0.0
  3
*U9
  1

  0
TEXT
  5
31E
330
3EF
100
AcDbEntity
  8
0
100
AcDbText
 10
0.1485157995819145
 20
0.4338091584430089
 30
0.0
 40
0.2
  1
Parts can be laid out on the sheet as you would 
100
AcDbText
  0
TEXT
  5
31F
330
3EF
100
AcDbEntity
  8
0
100
AcDbText
 10
0.1512021662709675
 20
0.0914764967013477
 30
0.0
 40
0.2
  1
like them cut, OR...
100
AcDbText
  0
ENDBLK
  5
321
330
3EF
100
AcDbEntity
  8
0
100
AcDbBlockEnd
  0
BLOCK
  5
3F2
330
3F1
100
AcDbEntity
  8
0
100
AcDbBlockBegin
  2
*U10
 70
     1
 10
0.0
 20
0.0
 30
0.0
  3
*U10
  1

  0
TEXT
  5
323
330
3F1
100
AcDbEntity
  8
0
100
AcDbText
 10
2.044302573797533
 20
9.179679357576915
 30
0.0
 40
0.2
  1
the parts can be noted for 
100
AcDbText
  0
TEXT
  5
324
330
3F1
100
AcDbEntity
  8
0
100
AcDbText
 10
1.892925810869393
 20
8.837346695835256
 30
0.0
 40
0.2
  1
quantity, and we will do the 
100
AcDbText
  0
TEXT
  5
325
330
3F1
100
AcDbEntity
  8
0
100
AcDbText
 10
2.925229370305256
 20
8.493670850749067
 30
0.0
 40
0.2
  1
layout for you.
100
AcDbText
  0
ENDBLK
  5
327
330
3F1
100
AcDbEntity
  8
0
100
AcDbBlockEnd
  0
BLOCK
  5
3F4
330
3F3
100
AcDbEntity
  8
0
100
AcDbBlockBegin
  2
*U11
 70
     1
 10
0.0
 20
0.0
 30
0.0
  3
*U11
  1

  0
SOLID
  5
333
330
3F3
100
AcDbEntity
  8
0
100
AcDbTrace
 10
3.313543283083651
 20
7.618719916380222
 30
0.0
 11
3.133543283083651
 21
7.648719916380223
 31
0.0
 12
3.313543283083651
 22
7.678719916380223
 32
0.0
 13
3.313543283083651
 23
7.678719916380223
 33
0.0
  0
LWPOLYLINE
  5
334
330
3F3
100
AcDbEntity
  8
0
100
AcDbPolyline
 90
        3
 70
     0
 43
0.0
 10
3.313543283083651
 20
7.648719916380223
 10
3.979485581917486
 20
7.648719916380223
 10
4.228495794601412
 20
7.648719916380223
  0
ENDBLK
  5
33A
330
3F3
100
AcDbEntity
  8
0
100
AcDbBlockEnd
  0
BLOCK
  5
3F6
330
3F5
100
AcDbEntity
  8
0
100
AcDbBlockBegin
  2
*U12
 70
     1
 10
0.0
 20
0.0
 30
0.0
  3
*U12
  1

  0
TEXT
  5
33C
330
3F5
100
AcDbEntity
  8
0
100
AcDbText
 10
4.284889347321358
 20
7.550620520812727
 30
0.0
 40
0.18
  1
12 each
100
AcDbText
  0
ENDBLK
  5
33E
330
3F5
100
AcDbEntity
  8
0
100
AcDbBlockEnd
  0
BLOCK
  5
3F8
330
3F7
100
AcDbEntity
  8
0
100
AcDbBlockBegin
  2
*U13
 70
     1
 10
0.0
 20
0.0
 30
0.0
  3
*U13
  1

  0
SOLID
  5
340
330
3F7
100
AcDbEntity
  8
0
100
AcDbTrace
 10
3.345268759002997
 20
6.105906719062918
 30
0.0
 11
3.165268759002997
 21
6.135906719062918
 31
0.0
 12
3.345268759002997
 22
6.165906719062918
 32
0.0
 13
3.345268759002997
 23
6.165906719062918
 33
0.0
  0
LWPOLYLINE
  5
341
330
3F7
100
AcDbEntity
  8
0
100
AcDbPolyline
 90
        3
 70
     0
 43
0.0
 10
3.345268759002997
 20
6.135906719062918
 10
4.011211057836831
 20
6.135906719062918
 10
4.260221270520758
 20
6.135906719062918
  0
ENDBLK
  5
347
330
3F7
100
AcDbEntity
  8
0
100
AcDbBlockEnd
  0
BLOCK
  5
3FA
330
3F9
100
AcDbEntity
  8
0
100
AcDbBlockBegin
  2
*U14
 70
     1
 10
0.0
 20
0.0
 30
0.0
  3
*U14
  1

  0
TEXT
  5
349
330
3F9
100
AcDbEntity
  8
0
100
AcDbText
 10
4.316614823240703
 20
6.037807323495425
 30
0.0
 40
0.18
  1
12 each
100
AcDbText
  0
ENDBLK
  5
34B
330
3F9
100
AcDbEntity
  8
0
100
AcDbBlockEnd
  0
BLOCK
  5
3FC
330
3FB
100
AcDbEntity
  8
0
100
AcDbBlockBegin
  2
*U15
 70
     1
 10
0.0
 20
0.0
 30
0.0
  3
*U15
  1

  0
TEXT
  5
36E
330
3FB
100
AcDbEntity
  8
0
100
AcDbText
 10
13.1886039478848
 20
8.335260023661442
 30
0.0
 40
0.2
  1
Avoid doubling lines, as the laser will cut the center line twice and reduce the 
100
AcDbText
  0
TEXT
  5
36F
330
3FB
100
AcDbEntity
  8
0
100
AcDbText
 10
17.8329961574214
 20
7.991584178575258
 30
0.0
 40
0.2
  1
quality of the cut.
100
AcDbText
  0
ENDBLK
  5
371
330
3FB
100
AcDbEntity
  8
0
100
AcDbBlockEnd
  0
BLOCK
  5
3FE
330
3FD
100
AcDbEntity
  8
0
100
AcDbBlockBegin
  2
*U16
 70
     1
 10
0.0
 20
0.0
 30
0.0
  3
*U16
  1

  0
TEXT
  5
373
330
3FD
100
AcDbEntity
  8
0
100
AcDbText
 10
14.81759691957572
 20
7.023961570517424
 30
0.0
 40
0.2
  1
Avoid This
100
AcDbText
  0
ENDBLK
  5
375
330
3FD
100
AcDbEntity
  8
0
100
AcDbBlockEnd
  0
BLOCK
  5
400
330
3FF
100
AcDbEntity
  8
0
100
AcDbBlockBegin
  2
*U17
 70
     1
 10
0.0
 20
0.0
 30
0.0
  3
*U17
  1

  0
TEXT
  5
377
330
3FF
100
AcDbEntity
  8
0
100
AcDbText
 10
21.02575585954214
 20
7.023692933848519
 30
0.0
 40
0.2
  1
This is much better
100
AcDbText
  0
ENDBLK
  5
379
330
3FF
100
AcDbEntity
  8
0
100
AcDbBlockEnd
  0
BLOCK
  5
402
330
401
100
AcDbEntity
  8
0
100
AcDbBlockBegin
  2
*U18
 70
     1
 10
0.0
 20
0.0
 30
0.0
  3
*U18
  1

  0
TEXT
  5
384
330
401
100
AcDbEntity
  8
0
100
AcDbText
 10
13.16227276063854
 20
11.36282867771394
 30
0.0
 40
0.7
  1
CUT OR ENGRAVE THIS TEXT
100
AcDbText
  0
ENDBLK
  5
386
330
401
100
AcDbEntity
  8
0
100
AcDbBlockEnd
  0
BLOCK
  5
404
330
403
100
AcDbEntity
  8
0
100
AcDbBlockBegin
  2
*U19
 70
     1
 10
0.0
 20
0.0
 30
0.0
  3
*U19
  1

  0
SOLID
  5
388
330
403
100
AcDbEntity
  8
0
100
AcDbTrace
 10
19.39022382160377
 20
11.0716627184388
 30
0.0
 11
19.29155364266481
 21
11.22516905638011
 31
0.0
 12
19.4346761377502
 22
11.11196149744285
 32
0.0
 13
19.4346761377502
 23
11.11196149744285
 33
0.0
  0
LWPOLYLINE
  5
389
330
403
100
AcDbEntity
  8
0
100
AcDbPolyline
 90
        3
 70
     0
 43
0.0
 10
19.41244997967699
 20
11.09181210794083
 10
20.1232798904483
 20
10.30771798149705
 10
20.95500613823178
 20
10.30771798149705
  0
ENDBLK
  5
38F
330
403
100
AcDbEntity
  8
0
100
AcDbBlockEnd
  0
BLOCK
  5
406
330
405
100
AcDbEntity
  8
0
100
AcDbBlockBegin
  2
*U20
 70
     1
 10
0.0
 20
0.0
 30
0.0
  3
*U20
  1

  0
TEXT
  5
391
330
405
100
AcDbEntity
  8
0
100
AcDbText
 10
21.04004979169048
 20
10.20961858592956
 30
0.0
 40
0.18
  1
Text that is to be cut or engraved should be called out like this:
100
AcDbText
  0
TEXT
  5
392
330
405
100
AcDbEntity
  8
0
100
AcDbText
 10
21.03255482862802
 20
9.906112877400346
 30
0.0
 40
0.18
  1
CUT THIS TEXT or
100
AcDbText
  0
TEXT
  5
393
330
405
100
AcDbEntity
  8
0
100
AcDbText
 10
21.02203770304038
 20
9.602607168871132
 30
0.0
 40
0.18
  1
ENGRAVE THIS TEXT
100
AcDbText
  0
TEXT
  5
394
330
405
100
AcDbEntity
  8
0
100
AcDbText
 10
21.03255482862802
 20
9.294507773303635
 30
0.0
 40
0.18
  1
Otherwise all text is assumed to be notes
100
AcDbText
  0
ENDBLK
  5
396
330
405
100
AcDbEntity
  8
0
100
AcDbBlockEnd
  0
ENDSEC
  0
SECTION
  2
ENTITIES
  0
LWPOLYLINE
  5
8B
330
3BD
100
AcDbEntity
  8
0
100
AcDbPolyline
 90
        4
 70
     1
 43
0.1
 10
1.0
 20
1.0
 10
33.0
 20
1.0
 10
33.0
 20
21.0
 10
1.0
 20
21.0
  0
INSERT
  5
BA
330
3BD
100
AcDbEntity
  8
0
100
AcDbBlockReference
  2
*U3
 10
0.0
 20
0.0
 30
0.0
  0
INSERT
  5
BF
330
3BD
100
AcDbEntity
  8
0
  6
Continuous
100
AcDbBlockReference
  2
*U4
 10
0.0
 20
0.0
 30
0.0
1001
ACAD
1002
{
1000
R14_HATCH_DATA
1000
BF
1011
1.0
1021
0.0
1031
0.0
1011
0.0
1021
1.0
1031
0.0
1011
0.0
1021
0.0
1031
1.0
1040
0.0
1010
0.0
1020
0.0
1030
1.0
1000
SOLID
1070
     1
1070
     1
1071
        1
1071
        1
1071
        3
1070
     1
1040
22.56388551615486
1040
1.874998209424964
1040
22.56388551615486
1040
1.190957922773626
1070
     1
1040
22.56388551615486
1040
1.190957922773626
1040
23.50357813694078
1040
1.532978066099295
1070
     1
1040
23.50357813694078
1040
1.532978066099295
1040
22.56388551615486
1040
1.874998209424964
1071
        1
1005
BA
1070
     0
1070
     1
1071
        1
1040
0.7100680569488418
1040
-0.7741347168943236
1040
0.0
1002
}
  0
INSERT
  5
C0
330
3BD
100
AcDbEntity
  8
0
  6
Continuous
100
AcDbBlockReference
  2
*U5
 10
0.0
 20
0.0
 30
0.0
1001
ACAD
1002
{
1000
R14_HATCH_DATA
1000
C0
1011
1.0
1021
0.0
1031
0.0
1011
0.0
1021
1.0
1031
0.0
1011
0.0
1021
0.0
1031
1.0
1040
0.0
1010
0.0
1020
0.0
1030
1.0
1000
SOLID
1070
     1
1070
     1
1071
        1
1071
        1
1071
        3
1070
     1
1040
11.82342427532163
1040
1.190957922773626
1040
11.82342427532163
1040
1.874998209424964
1070
     1
1040
11.82342427532163
1040
1.874998209424964
1040
10.88373165453572
1040
1.532978066099295
1070
     1
1040
10.88373165453572
1040
1.532978066099295
1040
11.82342427532163
1040
1.190957922773626
1071
        1
1005
C1
1070
     0
1070
     1
1071
        1
1040
33.67724173452766
1040
-0.7741347168943236
1040
0.0
1002
}
  0
INSERT
  5
C1
330
3BD
100
AcDbEntity
  8
0
100
AcDbBlockReference
  2
*U6
 10
0.0
 20
0.0
 30
0.0
  0
LWPOLYLINE
  5
C2
330
3BD
100
AcDbEntity
  8
0
100
AcDbPolyline
 90
        2
 70
     0
 43
0.1
 10
11.82342427532163
 20
1.532978066099295
 10
22.56388551615486
 20
1.532978066099295
  0
INSERT
  5
C4
330
3BD
100
AcDbEntity
  8
0
100
AcDbBlockReference
  2
*U7
 10
0.0
 20
0.0
 30
0.0
  0
LWPOLYLINE
  5
C7
330
3BD
100
AcDbEntity
  8
1_16_BALSA
100
AcDbPolyline
 90
        4
 70
     0
 43
0.0
 10
9.692226096733474
 20
15.06648977469692
 10
1.978304668523703
 20
15.06648977469692
 10
1.978304668523703
 20
19.06648977469692
 10
9.692226096733474
 20
19.06648977469692
  0
LINE
  5
C8
330
3BD
100
AcDbEntity
  8
1_16_BALSA
100
AcDbLine
 10
9.692226096733474
 20
19.31648977469692
 30
0.0
 11
9.692226096733474
 21
17.51908058748838
 31
0.0
  0
LINE
  5
C9
330
3BD
100
AcDbEntity
  8
1_16_BALSA
100
AcDbLine
 10
8.368917453399633
 20
17.13115311163474
 30
0.0
 11
11.01553474006732
 21
17.13115311163474
 31
0.0
  0
LINE
  5
CA
330
3BD
100
AcDbEntity
  8
1_16_BALSA
100
AcDbLine
 10
8.368917453399633
 20
17.13115311163474
 30
0.0
 11
9.692226096733474
 21
17.51908058748838
 31
0.0
  0
LINE
  5
CC
330
3BD
100
AcDbEntity
  8
1_16_BALSA
100
AcDbLine
 10
11.01553474006732
 20
17.13115311163474
 30
0.0
 11
9.692226096733474
 21
16.74322563578111
 31
0.0
  0
LINE
  5
CD
330
3BD
100
AcDbEntity
  8
1_16_BALSA
100
AcDbLine
 10
9.692226096733474
 20
16.74322563578111
 30
0.0
 11
9.692226096733474
 21
14.81648977469692
 31
0.0
  0
LWPOLYLINE
  5
CF
330
3BD
100
AcDbEntity
  8
1_8_BALSA
100
AcDbPolyline
 90
        4
 70
     0
 43
0.0
 10
9.692226096733474
 20
10.32580410395257
 10
1.978304668523703
 20
10.32580410395257
 10
1.978304668523703
 20
14.32580410395257
 10
9.692226096733474
 20
14.32580410395257
  0
LINE
  5
D0
330
3BD
100
AcDbEntity
  8
1_8_BALSA
100
AcDbLine
 10
9.692226096733474
 20
14.57580410395257
 30
0.0
 11
9.692226096733474
 21
12.77839491674403
 31
0.0
  0
LINE
  5
D1
330
3BD
100
AcDbEntity
  8
1_8_BALSA
100
AcDbLine
 10
9.692226096733474
 20
12.00253996503675
 30
0.0
 11
9.692226096733474
 21
10.07580410395257
 31
0.0
  0
LINE
  5
D2
330
3BD
100
AcDbEntity
  8
1_8_BALSA
100
AcDbLine
 10
8.368917453399633
 20
12.39046744089039
 30
0.0
 11
11.01553474006732
 21
12.39046744089039
 31
0.0
  0
LINE
  5
D3
330
3BD
100
AcDbEntity
  8
1_8_BALSA
100
AcDbLine
 10
8.368917453399633
 20
12.39046744089039
 30
0.0
 11
9.692226096733474
 21
12.77839491674403
 31
0.0
  0
LINE
  5
D4
330
3BD
100
AcDbEntity
  8
1_8_BALSA
100
AcDbLine
 10
11.01553474006732
 20
12.39046744089039
 30
0.0
 11
9.692226096733474
 21
12.00253996503675
 31
0.0
  0
CIRCLE
  5
D5
330
3BD
100
AcDbEntity
  8
1_16_BALSA
100
AcDbCircle
 10
2.817476049817243
 20
15.67965058850338
 30
0.0
 40
0.4841372620403206
  0
CIRCLE
  5
E5
330
3BD
100
AcDbEntity
  8
1_16_BALSA
100
AcDbCircle
 10
2.817476049817243
 20
16.77965058850338
 30
0.0
 40
0.4841372620403206
  0
CIRCLE
  5
E6
330
3BD
100
AcDbEntity
  8
1_16_BALSA
100
AcDbCircle
 10
2.817476049817243
 20
17.87965058850338
 30
0.0
 40
0.4841372620403206
  0
CIRCLE
  5
E8
330
3BD
100
AcDbEntity
  8
1_16_BALSA
100
AcDbCircle
 10
3.917476049817243
 20
15.67965058850338
 30
0.0
 40
0.4841372620403206
  0
CIRCLE
  5
E9
330
3BD
100
AcDbEntity
  8
1_16_BALSA
100
AcDbCircle
 10
3.917476049817243
 20
16.77965058850338
 30
0.0
 40
0.4841372620403206
  0
CIRCLE
  5
EA
330
3BD
100
AcDbEntity
  8
1_16_BALSA
100
AcDbCircle
 10
3.917476049817243
 20
17.87965058850338
 30
0.0
 40
0.4841372620403206
  0
CIRCLE
  5
EC
330
3BD
100
AcDbEntity
  8
1_16_BALSA
100
AcDbCircle
 10
5.017476049817243
 20
15.67965058850338
 30
0.0
 40
0.4841372620403206
  0
CIRCLE
  5
ED
330
3BD
100
AcDbEntity
  8
1_16_BALSA
100
AcDbCircle
 10
5.017476049817243
 20
16.77965058850338
 30
0.0
 40
0.4841372620403206
  0
CIRCLE
  5
EE
330
3BD
100
AcDbEntity
  8
1_16_BALSA
100
AcDbCircle
 10
5.017476049817243
 20
17.87965058850338
 30
0.0
 40
0.4841372620403206
  0
CIRCLE
  5
F0
330
3BD
100
AcDbEntity
  8
1_16_BALSA
100
AcDbCircle
 10
6.117476049817242
 20
15.67965058850338
 30
0.0
 40
0.4841372620403206
  0
CIRCLE
  5
F1
330
3BD
100
AcDbEntity
  8
1_16_BALSA
100
AcDbCircle
 10
6.117476049817242
 20
16.77965058850338
 30
0.0
 40
0.4841372620403206
  0
CIRCLE
  5
F2
330
3BD
100
AcDbEntity
  8
1_16_BALSA
100
AcDbCircle
 10
6.117476049817242
 20
17.87965058850338
 30
0.0
 40
0.4841372620403206
  0
LWPOLYLINE
  5
F4
330
3BD
100
AcDbEntity
  8
1_8_BALSA
100
AcDbPolyline
 90
        4
 70
     1
 43
0.0
 10
2.301062843217251
 20
10.51964199993028
 10
3.301062843217251
 20
10.51964199993028
 10
3.301062843217251
 20
11.51964199993028
 10
2.301062843217251
 20
11.51964199993028
  0
LWPOLYLINE
  5
10F
330
3BD
100
AcDbEntity
  8
1_8_BALSA
100
AcDbPolyline
 90
        4
 70
     1
 43
0.0
 10
2.301062843217251
 20
11.61964199993028
 10
3.301062843217251
 20
11.61964199993028
 10
3.301062843217251
 20
12.61964199993028
 10
2.301062843217251
 20
12.61964199993028
  0
LWPOLYLINE
  5
110
330
3BD
100
AcDbEntity
  8
1_8_BALSA
100
AcDbPolyline
 90
        4
 70
     1
 43
0.0
 10
2.301062843217251
 20
12.71964199993028
 10
3.301062843217251
 20
12.71964199993028
 10
3.301062843217251
 20
13.71964199993028
 10
2.301062843217251
 20
13.71964199993028
  0
LWPOLYLINE
  5
111
330
3BD
100
AcDbEntity
  8
1_8_BALSA
100
AcDbPolyline
 90
        4
 70
     1
 43
0.0
 10
3.401062843217252
 20
10.51964199993028
 10
4.401062843217252
 20
10.51964199993028
 10
4.401062843217252
 20
11.51964199993028
 10
3.401062843217252
 20
11.51964199993028
  0
LWPOLYLINE
  5
112
330
3BD
100
AcDbEntity
  8
1_8_BALSA
100
AcDbPolyline
 90
        4
 70
     1
 43
0.0
 10
3.401062843217252
 20
11.61964199993028
 10
4.401062843217252
 20
11.61964199993028
 10
4.401062843217252
 20
12.61964199993028
 10
3.401062843217252
 20
12.61964199993028
  0
LWPOLYLINE
  5
113
330
3BD
100
AcDbEntity
  8
1_8_BALSA
100
AcDbPolyline
 90
        4
 70
     1
 43
0.0
 10
3.401062843217252
 20
12.71964199993028
 10
4.401062843217252
 20
12.71964199993028
 10
4.401062843217252
 20
13.71964199993028
 10
3.401062843217252
 20
13.71964199993028
  0
LWPOLYLINE
  5
114
330
3BD
100
AcDbEntity
  8
1_8_BALSA
100
AcDbPolyline
 90
        4
 70
     1
 43
0.0
 10
4.50106284321725
 20
10.51964199993028
 10
5.501062843217251
 20
10.51964199993028
 10
5.501062843217251
 20
11.51964199993028
 10
4.50106284321725
 20
11.51964199993028
  0
LWPOLYLINE
  5
115
330
3BD
100
AcDbEntity
  8
1_8_BALSA
100
AcDbPolyline
 90
        4
 70
     1
 43
0.0
 10
4.50106284321725
 20
11.61964199993028
 10
5.501062843217251
 20
11.61964199993028
 10
5.501062843217251
 20
12.61964199993028
 10
4.50106284321725
 20
12.61964199993028
  0
LWPOLYLINE
  5
116
330
3BD
100
AcDbEntity
  8
1_8_BALSA
100
AcDbPolyline
 90
        4
 70
     1
 43
0.0
 10
4.50106284321725
 20
12.71964199993028
 10
5.501062843217251
 20
12.71964199993028
 10
5.501062843217251
 20
13.71964199993028
 10
4.50106284321725
 20
13.71964199993028
  0
LWPOLYLINE
  5
117
330
3BD
100
AcDbEntity
  8
1_8_BALSA
100
AcDbPolyline
 90
        4
 70
     1
 43
0.0
 10
5.601062843217252
 20
10.51964199993028
 10
6.601062843217252
 20
10.51964199993028
 10
6.601062843217252
 20
11.51964199993028
 10
5.601062843217252
 20
11.51964199993028
  0
LWPOLYLINE
  5
118
330
3BD
100
AcDbEntity
  8
1_8_BALSA
100
AcDbPolyline
 90
        4
 70
     1
 43
0.0
 10
5.601062843217252
 20
11.61964199993028
 10
6.601062843217252
 20
11.61964199993028
 10
6.601062843217252
 20
12.61964199993028
 10
5.601062843217252
 20
12.61964199993028
  0
LWPOLYLINE
  5
119
330
3BD
100
AcDbEntity
  8
1_8_BALSA
100
AcDbPolyline
 90
        4
 70
     1
 43
0.0
 10
5.601062843217252
 20
12.71964199993028
 10
6.601062843217252
 20
12.71964199993028
 10
6.601062843217252
 20
13.71964199993028
 10
5.601062843217252
 20
13.71964199993028
  0
INSERT
  5
11A
330
3BD
100
AcDbEntity
  8
0
100
AcDbBlockReference
  2
*U8
 10
0.0
 20
0.0
 30
0.0
  0
LWPOLYLINE
  5
11B
330
3BD
100
AcDbEntity
  8
0
100
AcDbPolyline
 90
        4
 70
     1
 43
0.0
 10
1.665502929857709
 20
19.55753712508055
 10
11.2770220434149
 20
19.55753712508055
 10
11.2770220434149
 20
9.838697427575141
 10
1.665502929857709
 20
9.838697427575141
  0
INSERT
  5
124
330
3BD
100
AcDbEntity
  8
0
100
AcDbBlockReference
  2
*U10
 10
0.0
 20
0.0
 30
0.0
  0
CIRCLE
  5
12E
330
3BD
100
AcDbEntity
  8
1_16_BALSA
100
AcDbCircle
 10
2.649406021043331
 20
7.648719916380223
 30
0.0
 40
0.4841372620403206
  0
LWPOLYLINE
  5
137
330
3BD
100
AcDbEntity
  8
1_8_BALSA
100
AcDbPolyline
 90
        4
 70
     1
 43
0.0
 10
2.165268759002996
 20
5.635906719062918
 10
3.165268759002997
 20
5.635906719062918
 10
3.165268759002997
 20
6.635906719062918
 10
2.165268759002996
 20
6.635906719062918
  0
INSERT
  5
138
330
3BD
100
AcDbEntity
  8
0
100
AcDbBlockReference
  2
*U11
 10
0.0
 20
0.0
 30
0.0
1001
ACAD
1000
DSTYLE
1002
{
1070
   147
1040
0.09
1070
    77
1070
     0
1002
}
  0
INSERT
  5
139
330
3BD
100
AcDbEntity
  8
0
100
AcDbBlockReference
  2
*U12
 10
0.0
 20
0.0
 30
0.0
  0
INSERT
  5
13C
330
3BD
100
AcDbEntity
  8
0
100
AcDbBlockReference
  2
*U13
 10
0.0
 20
0.0
 30
0.0
1001
ACAD
1000
DSTYLE
1002
{
1070
   147
1040
0.09
1070
    77
1070
     0
1002
}
  0
INSERT
  5
13F
330
3BD
100
AcDbEntity
  8
0
100
AcDbBlockReference
  2
*U14
 10
0.0
 20
0.0
 30
0.0
  0
LWPOLYLINE
  5
148
330
3BD
100
AcDbEntity
  8
0
100
AcDbPolyline
 90
        4
 70
     1
 43
0.0
 10
1.888749577531014
 20
8.375588912223632
 10
6.22904289048992
 20
8.375588912223632
 10
6.22904289048992
 20
5.052446482566464
 10
1.888749577531014
 20
5.052446482566464
  0
LWPOLYLINE
  5
14A
330
3BD
100
AcDbEntity
  8
0
100
AcDbPolyline
 90
        4
 70
     1
 43
0.0
 10
13.44237321291443
 20
6.873440095965185
 10
15.61251986939389
 20
6.873440095965185
 10
15.61251986939389
 20
3.970063029650886
 10
13.44237321291443
 20
3.970063029650886
  0
LWPOLYLINE
  5
14B
330
3BD
100
AcDbEntity
  8
0
100
AcDbPolyline
 90
        4
 70
     1
 43
0.0
 10
15.61251986939389
 20
6.873440095965185
 10
17.78266652587335
 20
6.873440095965185
 10
17.78266652587335
 20
3.970063029650886
 10
15.61251986939389
 20
3.970063029650886
  0
LWPOLYLINE
  5
14C
330
3BD
100
AcDbEntity
  8
0
100
AcDbPolyline
 90
        4
 70
     1
 43
0.0
 10
20.33783907027508
 20
6.873440095965185
 10
22.50798572675454
 20
6.873440095965185
 10
22.50798572675454
 20
3.970063029650886
 10
20.33783907027508
 20
3.970063029650886
  0
LWPOLYLINE
  5
14D
330
3BD
100
AcDbEntity
  8
0
100
AcDbPolyline
 90
        4
 70
     1
 43
0.0
 10
22.60798572675454
 20
6.873440095965185
 10
24.778132383234
 20
6.873440095965185
 10
24.778132383234
 20
3.970063029650886
 10
22.60798572675454
 20
3.970063029650886
  0
LWPOLYLINE
  5
14E
330
3BD
100
AcDbEntity
  8
0
100
AcDbPolyline
 90
        4
 70
     1
 43
0.0
 10
12.68691476286425
 20
7.915272588217177
 10
25.58561026436275
 20
7.915272588217177
 10
25.58561026436275
 20
3.174089599001098
 10
12.68691476286425
 20
3.174089599001098
  0
INSERT
  5
14F
330
3BD
100
AcDbEntity
  8
0
100
AcDbBlockReference
  2
*U15
 10
0.0
 20
0.0
 30
0.0
  0
INSERT
  5
150
330
3BD
100
AcDbEntity
  8
0
100
AcDbBlockReference
  2
*U16
 10
0.0
 20
0.0
 30
0.0
  0
INSERT
  5
152
330
3BD
100
AcDbEntity
  8
0
100
AcDbBlockReference
  2
*U17
 10
0.0
 20
0.0
 30
0.0
  0
LWPOLYLINE
  5
153
330
3BD
100
AcDbEntity
  8
0
100
AcDbPolyline
 90
        4
 70
     1
 43
0.0
 10
1.463682436653271
 20
20.28951075786028
 10
11.44439734211607
 20
20.28951075786028
 10
11.44439734211607
 20
4.894140738349753
 10
1.463682436653271
 20
4.894140738349753
  0
INSERT
  5
165
330
3BD
100
AcDbEntity
  8
0
100
AcDbBlockReference
  2
*U18
 10
0.0
 20
0.0
 30
0.0
  0
INSERT
  5
166
330
3BD
100
AcDbEntity
  8
0
100
AcDbBlockReference
  2
*U19
 10
-2.227031641410333
 20
0.0
 30
0.0
1001
ACAD
1000
DSTYLE
1002
{
1070
   147
1040
0.09
1070
    77
1070
     0
1002
}
  0
INSERT
  5
167
330
3BD
100
AcDbEntity
  8
0
100
AcDbBlockReference
  2
*U20
 10
-2.227031641410333
 20
0.0
 30
0.0
  0
LWPOLYLINE
  5
16A
330
3BD
100
AcDbEntity
  8
0
100
AcDbPolyline
 90
        4
 70
     1
 43
0.0
 10
12.8692907439364
 20
12.4642454580721
 10
30.26581825063495
 20
12.4642454580721
 10
30.26581825063495
 20
9.068741325551911
 10
12.8692907439364
 20
9.068741325551911
  0
TEXT
  5
420
330
3BD
100
AcDbEntity
  8
0
100
AcDbText
 10
13.02181331087201
 20
20.22958411338029
 30
0.0
 40
0.3
  1
This sample file is intended to help you set up a drawing for laser 
100
AcDbText
  0
TEXT
  5
421
330
3BD
100
AcDbEntity
  8
0
100
AcDbText
 10
13.0123438682931
 20
19.7160851207678
 30
0.0
 40
0.3
  1
cutting.
100
AcDbText
  0
TEXT
  5
422
330
3BD
100
AcDbEntity
  8
0
100
AcDbText
 10
12.99179316312184
 20
19.20057135313852
 30
0.0
 40
0.3
  1
Note the use of individual layers named for each type of material to 
100
AcDbText
  0
TEXT
  5
423
330
3BD
100
AcDbEntity
  8
0
100
AcDbText
 10
12.99582271315542
 20
18.68707236052602
 30
0.0
 40
0.3
  1
be cut.  Parts should be drawn with orientation relative to the 
100
AcDbText
  0
TEXT
  5
424
330
3BD
100
AcDbEntity
  8
0
100
AcDbText
 10
13.01274682329645
 20
18.17155859289673
 30
0.0
 40
0.3
  1
assumed grain direction (horizontal), otherwise the final product 
100
AcDbText
  0
TEXT
  5
425
330
3BD
100
AcDbEntity
  8
0
100
AcDbText
 10
12.9960241906571
 20
17.65805960028425
 30
0.0
 40
0.3
  1
may have grain running in the wrong direction.
100
AcDbText
  0
TEXT
  5
426
330
3BD
100
AcDbEntity
  8
0
100
AcDbText
 10
13.00932170576791
 20
16.64456060767176
 30
0.0
 40
0.3
  1
Laser Edge
100
AcDbText
  0
TEXT
  5
427
330
3BD
100
AcDbEntity
  8
0
100
AcDbText
 10
12.97648087299424
 20
16.13106161505927
 30
0.0
 40
0.3
  1
5526 W. 13400 S. #426
100
AcDbText
  0
TEXT
  5
428
330
3BD
100
AcDbEntity
  8
0
100
AcDbText
 10
13.02523842840055
 20
15.61756262244677
 30
0.0
 40
0.3
  1
Herriman, UT 84096
100
AcDbText
  0
TEXT
  5
42B
330
3BD
100
AcDbEntity
  8
0
100
AcDbText
 10
13.01093352578134
 20
14.07303609457572
 30
0.0
 40
0.3
  1
sales@laseredgecutters.com
100
AcDbText
  0
VIEWPORT
  5
158
330
3B9
100
AcDbEntity
 67
     1
  8
0
100
AcDbViewport
 10
5.249999639556162
 20
3.999999883606676
 30
0.0
 40
15.79992822873465
 41
8.992999745766944
 68
     1
 69
     1
 12
5.249999639556162
 22
3.999999883606676
 13
0.0
 23
0.0
 14
0.5
 24
0.5
 15
0.5
 25
0.5
 16
0.0
 26
0.0
 36
1.0
 17
0.0
 27
0.0
 37
0.0
 42
50.0
 43
0.0
 44
0.0
 45
8.992999745766944
 50
0.0
 51
0.0
 72
  1000
 90
    32800
  1

281
     0
 71
     0
 74
     0
110
0.0
120
0.0
130
0.0
111
0.0
121
0.0
131
0.0
112
0.0
122
0.0
132
0.0
 79
     0
146
0.0
170
     0
  0
VIEWPORT
  5
15B
330
3B9
100
AcDbEntity
 67
     1
  8
0
100
AcDbViewport
 10
5.24999976158142
 20
3.999999761581419
 30
0.0
 40
8.399999618530268
 41
6.39999961853027
 68
     2
 69
     2
 12
17.03531732706514
 22
11.51516685165574
 13
0.0
 23
0.0
 14
0.5
 24
0.5
 15
0.5
 25
0.5
 16
0.0
 26
0.0
 36
1.0
 17
0.0
 27
0.0
 37
0.0
 42
50.0
 43
0.0
 44
0.0
 45
24.74074963289933
 50
0.0
 51
0.0
 72
  1000
 90
    32864
  1

281
     0
 71
     0
 74
     0
110
0.0
120
0.0
130
0.0
111
0.0
121
0.0
131
0.0
112
0.0
122
0.0
132
0.0
 79
     0
146
0.0
170
     0
  0
ENDSEC
  0
SECTION
  2
OBJECTS
  0
DICTIONARY
  5
3A7
330
0
100
AcDbDictionary
281
     1
  3
ACAD_COLOR
350
3B6
  3
ACAD_GROUP
350
3A8
  3
ACAD_LAYOUT
350
3B4
  3
ACAD_MATERIAL
350
3B5
  3
ACAD_MLINESTYLE
350
3B1
  3
ACAD_PLOTSETTINGS
350
3B3
  3
ACAD_PLOTSTYLENAME
350
3A9
  3
ACAD_TABLESTYLE
350
3B7
  3
AcDbVariableDictionary
350
40B
  0
DICTIONARY
  5
42C
330
3BD
100
AcDbDictionary
280
     1
281
     1
  3
ACAD_SORTENTS
360
42D
  0
DICTIONARY
  5
3B6
102
{ACAD_REACTORS
330
3A7
102
}
330
3A7
100
AcDbDictionary
281
     1
  0
DICTIONARY
  5
3A8
102
{ACAD_REACTORS
330
3A7
102
}
330
3A7
100
AcDbDictionary
281
     1
  0
DICTIONARY
  5
3B4
102
{ACAD_REACTORS
330
3A7
102
}
330
3A7
100
AcDbDictionary
281
     1
  3
Layout1
350
3BC
  3
Model
350
3C0
  0
DICTIONARY
  5
3B5
102
{ACAD_REACTORS
330
3A7
102
}
330
3A7
100
AcDbDictionary
281
     1
  0
DICTIONARY
  5
3B1
102
{ACAD_REACTORS
330
3A7
102
}
330
3A7
100
AcDbDictionary
281
     1
  3
Standard
350
3B2
  0
DICTIONARY
  5
3B3
102
{ACAD_REACTORS
330
3A7
102
}
330
3A7
100
AcDbDictionary
281
     1
  0
ACDBDICTIONARYWDFLT
  5
3A9
102
{ACAD_REACTORS
330
3A7
102
}
330
3A7
100
AcDbDictionary
281
     1
  3
Normal
350
3AA
100
AcDbDictionaryWithDefault
340
3AA
  0
DICTIONARY
  5
3B7
102
{ACAD_REACTORS
330
3A7
102
}
330
3A7
100
AcDbDictionary
281
     1
  3
Standard
350
3B8
  0
DICTIONARY
  5
40B
102
{ACAD_REACTORS
330
3A7
102
}
330
3A7
100
AcDbDictionary
281
     1
  3
CTABLESTYLE
350
40C
  3
DIMASSOC
350
40D
  3
PROJECTNAME
350
40E
  0
SORTENTSTABLE
  5
42D
102
{ACAD_REACTORS
330
42C
102
}
330
42C
100
AcDbSortentsTable
330
3BD
331
152
  5
426
331
D2
  5
F0
331
13F
  5
166
331
E9
  5
112
331
150
  5
425
331
D0
  5
ED
331
16A
  5
42B
331
167
  5
42A
331
14E
  5
423
331
124
  5
14E
331
BA
  5
CF
331
165
  5
428
331
CC
  5
E9
331
14C
  5
421
331
117
  5
148
331
E5
  5
10F
331
139
  5
153
331
F4
  5
11A
331
CA
  5
E8
331
14A
  5
16A
331
115
  5
13C
331
C7
  5
D5
331
428
  5
C9
331
F2
  5
119
331
C8
  5
E5
331
148
  5
167
331
113
  5
138
331
426
  5
C7
331
F0
  5
117
331
111
  5
12E
331
424
  5
C2
331
EE
  5
116
331
11A
  5
14C
331
422
  5
C0
331
10F
  5
11B
331
D5
  5
F4
331
C1
  5
D2
331
12E
  5
14F
331
EC
  5
114
331
118
  5
14A
331
420
  5
BA
331
D3
  5
F1
331
153
  5
427
331
BF
  5
D0
331
EA
  5
113
331
D1
  5
EE
331
E8
  5
111
331
14F
  5
424
331
CF
  5
EC
331
166
  5
429
331
13C
  5
165
331
CD
  5
EA
331
14D
  5
422
331
E6
  5
110
331
42B
  5
CD
331
137
  5
150
331
14B
  5
420
331
116
  5
13F
331
138
  5
152
331
C9
  5
E6
331
114
  5
139
331
427
  5
C8
331
F1
  5
118
331
112
  5
137
331
425
  5
C4
331
C4
  5
D4
331
11B
  5
14D
331
423
  5
C1
331
110
  5
124
331
C2
  5
D3
331
ED
  5
115
331
119
  5
14B
331
421
  5
BF
331
D4
  5
F2
331
C0
  5
D1
331
8B
  5
8B
  0
LAYOUT
  5
3BC
102
{ACAD_REACTORS
330
3B4
102
}
330
3B4
100
AcDbPlotSettings
  1

  2
Brother MFC-8840D USB
  4

  6

 40
0.0
 41
0.0
 42
0.0
 43
0.0
 44
0.0
 45
0.0
 46
0.0
 47
0.0
 48
0.0
 49
0.0
140
0.0
141
0.0
142
1.0
143
1.0
 70
   688
 72
     0
 73
     0
 74
     5
  7

 75
    16
147
1.0
 76
     0
 77
     2
 78
   300
148
0.0
149
0.0
100
AcDbLayout
  1
Layout1
 70
     1
 71
     1
 10
-0.2500002402958907
 20
-0.2499999962453767
 11
10.74999951940821
 21
8.249999763458731
 12
0.0
 22
0.0
 32
0.0
 14
1.049999952316283
 24
0.7999999523162842
 34
0.0
 15
9.449999570846555
 25
7.199999570846554
 35
0.0
146
0.0
 13
0.0
 23
0.0
 33
0.0
 16
1.0
 26
0.0
 36
0.0
 17
0.0
 27
1.0
 37
0.0
 76
     0
330
3B9
331
158
  0
LAYOUT
  5
3C0
102
{ACAD_REACTORS
330
3B4
102
}
330
3B4
100
AcDbPlotSettings
  1

  2
Brother MFC-8840D USB
  4

  6

 40
0.0
 41
0.0
 42
0.0
 43
0.0
 44
0.0
 45
0.0
 46
0.0
 47
0.0
 48
0.0
 49
0.0
140
0.0
141
0.0
142
1.0
143
1.0
 70
  1712
 72
     0
 73
     0
 74
     0
  7

 75
     0
147
1.0
 76
     0
 77
     2
 78
   300
148
0.0
149
0.0
100
AcDbLayout
  1
Model
 70
     1
 71
     0
 10
0.0
 20
0.0
 11
12.0
 21
9.0
 12
0.0
 22
0.0
 32
0.0
 14
0.0
 24
0.0
 34
0.0
 15
0.0
 25
0.0
 35
0.0
146
0.0
 13
0.0
 23
0.0
 33
0.0
 16
1.0
 26
0.0
 36
0.0
 17
0.0
 27
1.0
 37
0.0
 76
     0
330
3BD
  0
MLINESTYLE
  5
3B2
102
{ACAD_REACTORS
330
3B1
102
}
330
3B1
100
AcDbMlineStyle
  2
STANDARD
 70
     0
  3

 62
   256
 51
90.0
 52
90.0
 71
     2
 49
0.5
 62
   256
  6
BYLAYER
 49
-0.5
 62
   256
  6
BYLAYER
  0
ACDBPLACEHOLDER
  5
3AA
102
{ACAD_REACTORS
330
3A9
102
}
330
3A9
  0
TABLESTYLE
  5
3B8
102
{ACAD_REACTORS
330
3B7
102
}
330
3B7
100
AcDbTableStyle
  3
Standard
 70
     0
 71
     0
 40
0.06
 41
0.06
280
     0
281
     0
  7
STANDARD
140
0.18
170
     2
 62
     0
 63
     7
283
     0
274
    -2
284
     1
 64
     0
275
    -2
285
     1
 65
     0
276
    -2
286
     1
 66
     0
277
    -2
287
     1
 67
     0
278
    -2
288
     1
 68
     0
279
    -2
289
     1
 69
     0
  7
STANDARD
140
0.25
170
     5
 62
     0
 63
     7
283
     0
274
    -2
284
     1
 64
     0
275
    -2
285
     1
 65
     0
276
    -2
286
     1
 66
     0
277
    -2
287
     1
 67
     0
278
    -2
288
     1
 68
     0
279
    -2
289
     1
 69
     0
  7
STANDARD
140
0.18
170
     5
 62
     0
 63
     7
283
     0
274
    -2
284
     1
 64
     0
275
    -2
285
     1
 65
     0
276
    -2
286
     1
 66
     0
277
    -2
287
     1
 67
     0
278
    -2
288
     1
 68
     0
279
    -2
289
     1
 69
     0
  0
DICTIONARYVAR
  5
40C
102
{ACAD_REACTORS
330
40B
102
}
330
40B
100
DictionaryVariables
280
     0
  1
STANDARD
  0
DICTIONARYVAR
  5
40D
102
{ACAD_REACTORS
330
40B
102
}
330
40B
100
DictionaryVariables
280
     0
  1
1
  0
DICTIONARYVAR
  5
40E
102
{ACAD_REACTORS
330
40B
102
}
330
40B
100
DictionaryVariables
280
     0
  1

  0
ENDSEC
  0
EOF
